<svg
              fill="#ffffff"
              width="24px"
              height="24px"
              viewBox="0 0 64 64"
              xmlns="http://www.w3.org/2000/svg"
              transform="rotate(0)matrix(-1, 0, 0, 1, 0, 0)"
              stroke="#ffffff"
            >
              <g id="SVGRepo_bgCarrier" stroke-width="0"></g>
              <g
                id="SVGRepo_tracerCarrier"
                stroke-linecap="round"
                stroke-linejoin="round"
              ></g>
              <g id="SVGRepo_iconCarrier">
                <title></title>
                <g id="Outline">
                  <path
                    d="M54.58,42.4a1,1,0,0,0-.83-.11l-1.43.46c-.06,0-1.75.53-4.57,1l-.33-11.25c1.35,1.59,3.3,3,5.59,2.17a1,1,0,0,0,.59-.6,1,1,0,0,0-.08-.85l-5.68-9.55a1,1,0,0,0-.51-.42,39.69,39.69,0,0,0-14.32-2,18.4,18.4,0,0,0-11.75-9.92,5.41,5.41,0,0,0-4.34.69,5.47,5.47,0,0,0-2.42,3.75L12.79,26.92a1,1,0,0,0,.28.86,5.76,5.76,0,0,0,4.53,1.47.94.94,0,0,0,.53-.23l3.2-2.71L16.1,40.8c-1.28-.55-2.56-1.17-3.82-1.86L11,38.22a1,1,0,0,0-.88,0,1,1,0,0,0-.57.67L8.07,44.47a1,1,0,0,0,.49,1.13l1.31.72A54.77,54.77,0,0,0,36.6,52.86a61.44,61.44,0,0,0,17.23-2.35l1.43-.45A1,1,0,0,0,56,49L55,43.09A1,1,0,0,0,54.58,42.4ZM43.79,24.34a6,6,0,0,1-1.93,3,5.76,5.76,0,0,1-4.43,1c-1.78-.22-3-.84-3.6-1.84a4.53,4.53,0,0,1-.37-3.21A38.19,38.19,0,0,1,43.79,24.34ZM17.08,27.29a3.7,3.7,0,0,1-2.23-.64l.5-3.24a4.31,4.31,0,0,1,3,2.79Zm6.83-2.24a1,1,0,0,0-.54-1.26l-.86-.37a1,1,0,0,0-1.05.15L20,24.84a6.58,6.58,0,0,0-4.3-3.43l.82-5.34A3.42,3.42,0,0,1,18,13.7a3.34,3.34,0,0,1,2.73-.44,16.66,16.66,0,0,1,10.69,9.38.57.57,0,0,0,.08.13,6.56,6.56,0,0,0,.6,4.7c1,1.55,2.65,2.49,5.07,2.8a10.39,10.39,0,0,0,1.35.08,7.24,7.24,0,0,0,4.56-1.46,7.94,7.94,0,0,0,2.63-4l.59.18,4.62,7.77c-2-.73-3.68-4.19-3.7-4.23a1,1,0,0,0-1.91.44l.43,15.07-2.07.27-1.4-3.83a1,1,0,0,0-.79-.65c-1.58-.23-3.67-3.59-4.66-5.9a1,1,0,0,0-.91-.61,1.26,1.26,0,0,0-.33,0c-3.7,1.25-9.91.45-10,.44a1,1,0,0,0-1,.56l-3.88,8.06c-.82-.27-2-.68-2.75-1Zm2.17,10.89a30,30,0,0,0,9.28-.36c.81,1.68,2.79,5.28,5.22,6.14l1.05,2.86a57.16,57.16,0,0,1-19-1.53ZM53.23,48.61A59.82,59.82,0,0,1,36.6,50.86a52.82,52.82,0,0,1-25.76-6.29l-.64-.35.93-3.63.19.1a45.67,45.67,0,0,0,5,2.35l.05,0,.2.07c1.25.5,2.5.93,3.74,1.31l.69.22H21a58.84,58.84,0,0,0,22,1.79h.16l.37-.05c1.09-.11,2.09-.25,3-.39l.37-.05L47,46a47.78,47.78,0,0,0,6-1.3l.32-.1.6,3.86Z"
                  ></path>
                </g>
              </g>
            </svg>