<svg xmlns="http://www.w3.org/2000/svg" width="20px" height="20px" viewBox="0 0 45 45" fill="#959595">
     <path
          d="M19.862 31.5215H25.793V33.4985H19.862V31.5215ZM15.908 33.4985V35.4755H29.747V33.4985H27.77V31.5215L28.8402 31.5175L29.0551 31.5123C31.6858 31.4002 31.5421 30.3182 28.8837 30.3182L16.4787 30.3274C13.848 30.4394 13.9903 31.5215 16.6487 31.5215H17.885V33.4985H15.908Z"
          fill="#3C3C3C" />
     <path
          d="M12.9425 11.7515H32.7125L32.8865 11.7568C34.443 11.8464 35.678 13.138 35.678 14.717V26.579L35.6727 26.753C35.5831 28.3095 34.2915 29.5445 32.7125 29.5445H12.9425L12.7685 29.5392C11.212 29.4496 9.977 28.158 9.977 26.579V14.717L9.98227 14.543C10.0719 12.9865 11.3635 11.7515 12.9425 11.7515ZM27.77 31.5215H32.7125L32.9273 31.5175C35.5581 31.4055 37.655 29.2374 37.655 26.579V14.717L37.651 14.5022C37.539 11.8714 35.3709 9.7745 32.7125 9.7745H12.9425L12.7277 9.77845C10.0969 9.89048 8 12.0586 8 14.717V26.579L8.00395 26.7938C8.11598 29.4246 10.2841 31.5215 12.9425 31.5215H17.885H27.77Z"
          fill="#3C3C3C" />
</svg>